<?xml version="1.0" encoding="utf-8"?>
<!-- Generator: Adobe Illustrator 24.1.2, SVG Export Plug-In . SVG Version: 6.00 Build 0)  -->
<svg version="1.1" id="Vrstva_1" xmlns="http://www.w3.org/2000/svg" xmlns:xlink="http://www.w3.org/1999/xlink" x="0px" y="0px"
	 viewBox="0 0 157 55" style="enable-background:new 0 0 157 55;" xml:space="preserve">
<style type="text/css">
	.st0{fill:#FFFFFF;}
</style>
<g>
	
		<image style="overflow:visible;" width="512" height="512" xlink:href="../../../../Design stuff/Icons/png/012-car.png"  transform="matrix(7.877604e-02 0 0 7.877604e-02 7.1014 7.3333)">
	</image>
	<g>
		<path class="st0" d="M78,17.4c0.4-0.9,1.4-2.7,2.8-5.3L83,8.4H86l-2.6,12.4h-2.3l1.3-5.9c0.2-1,0.5-2.2,0.8-3.5h-0.1
			c-0.6,1.3-1.8,3.5-3.6,6.6l-1.6,2.8h-1.5l-1-6.7c-0.1-0.9-0.3-1.8-0.4-2.7h-0.1c-0.1,0.9-0.2,2-0.5,3.3l-1.3,6.2h-2.3l2.6-12.4
			h2.9l0.6,3.5C77.4,13.3,77.7,15.1,78,17.4L78,17.4z"/>
		<path class="st0" d="M86.7,11.8h2.2l0.8,3.9c0.2,0.9,0.3,1.7,0.4,2.4h0.1c0.3-0.7,0.7-1.5,1.2-2.3l2.2-4.1h2.5l-5.3,9.3
			c-0.4,0.6-0.7,1.2-1.1,1.7s-0.7,1-1.2,1.3c-0.4,0.4-0.9,0.7-1.4,0.9c-0.5,0.2-1.1,0.3-1.7,0.3c-0.5,0-0.9,0-1.2-0.1l0.4-1.7
			c0.2,0,0.5,0.1,0.7,0.1c0.4,0,0.7-0.1,1-0.2c0.3-0.1,0.6-0.3,0.8-0.5c0.3-0.2,0.5-0.5,0.7-0.9c0.2-0.4,0.5-0.8,0.8-1.3L86.7,11.8z
			"/>
		<path class="st0" d="M102.2,13.6h-2.3l-0.9,4.3c0,0.1-0.1,0.3-0.1,0.4c0,0.1,0,0.2,0,0.3c0,0.2,0.1,0.4,0.2,0.5
			c0.1,0.1,0.3,0.1,0.6,0.1c0.2,0,0.5,0,0.8-0.1c0.3,0,0.6-0.1,0.9-0.2l-0.4,1.8c-0.3,0.1-0.6,0.1-1,0.2c-0.3,0-0.7,0.1-1,0.1
			c-0.4,0-0.8,0-1.1-0.1c-0.3-0.1-0.6-0.2-0.8-0.4c-0.2-0.2-0.3-0.4-0.4-0.6c-0.1-0.2-0.1-0.5-0.1-0.8c0-0.1,0-0.2,0-0.4
			c0-0.1,0-0.3,0.1-0.5l0.9-4.6H96l0.4-1.8H98l0.5-2.5h2.2l-0.5,2.5h2.3L102.2,13.6z"/>
		<path class="st0" d="M102.6,20.8l1.9-9h2.2l-1.9,9H102.6z M108.9,7.1l-2.2,3.2h-1.8l1.8-3.2H108.9z"/>
		<path class="st0" d="M119,18.6c0,0.2,0,0.3,0.1,0.4c0.1,0.1,0.2,0.1,0.4,0.1c0.2,0,0.4,0,0.7-0.1l-0.4,1.8
			c-0.4,0.1-0.8,0.1-1.1,0.1c-0.5,0-0.9-0.1-1.2-0.4c-0.3-0.2-0.4-0.6-0.5-1h0c-0.4,0.5-0.9,0.9-1.4,1.1c-0.5,0.2-1,0.3-1.4,0.3
			c-0.4,0-0.8-0.1-1.1-0.2c-0.3-0.1-0.6-0.4-0.8-0.6c-0.2-0.3-0.4-0.6-0.5-1c-0.1-0.4-0.2-0.8-0.2-1.3c0-0.5,0-1,0.1-1.5
			c0.1-0.5,0.2-1,0.4-1.5c0.2-0.5,0.4-0.9,0.6-1.3s0.5-0.8,0.8-1.1c0.3-0.3,0.7-0.5,1.1-0.7c0.4-0.2,0.8-0.3,1.3-0.3
			c0.4,0,0.8,0.1,1.2,0.3c0.4,0.2,0.7,0.5,1,0.8h0l0.3-0.9h1.9L119,18c0,0.1,0,0.2-0.1,0.3C119,18.5,119,18.6,119,18.6z M117.7,14.1
			c-0.1-0.1-0.1-0.2-0.2-0.2c-0.1-0.1-0.2-0.2-0.3-0.2c-0.1-0.1-0.3-0.1-0.4-0.2c-0.1,0-0.3-0.1-0.5-0.1c-0.3,0-0.6,0.1-0.8,0.2
			c-0.2,0.1-0.5,0.3-0.6,0.6c-0.2,0.2-0.4,0.5-0.5,0.8c-0.1,0.3-0.2,0.6-0.3,0.9c-0.1,0.3-0.2,0.6-0.2,1c0,0.3-0.1,0.6-0.1,0.9
			c0,0.5,0.1,0.9,0.2,1.2c0.2,0.2,0.4,0.4,0.7,0.4c0.3,0,0.6-0.1,0.9-0.3c0.3-0.2,0.6-0.5,0.8-0.9c0.2-0.2,0.3-0.5,0.4-0.8
			c0.1-0.3,0.2-0.7,0.3-1.1L117.7,14.1z"/>
		<path class="st0" d="M125.3,21c-0.6,0-1.1-0.1-1.5-0.2c-0.4-0.1-0.8-0.3-1-0.6s-0.5-0.5-0.6-0.9c-0.1-0.3-0.2-0.7-0.2-1.1
			c0-0.1,0-0.3,0-0.4c0-0.2,0.1-0.4,0.1-0.6l1.1-5.4h2.2l-1.1,5.5c0,0.1-0.1,0.3-0.1,0.4c0,0.1,0,0.2,0,0.3c0,0.4,0.1,0.7,0.3,0.9
			c0.2,0.2,0.5,0.3,1,0.3c0.3,0,0.6,0,0.8-0.1c0.2-0.1,0.4-0.2,0.6-0.4c0.2-0.2,0.3-0.4,0.4-0.6c0.1-0.2,0.2-0.5,0.2-0.8l1.1-5.5
			h2.2l-1.3,6.1c-0.1,0.4-0.2,0.8-0.4,1.2c-0.2,0.4-0.4,0.7-0.8,1c-0.3,0.3-0.8,0.5-1.3,0.7C126.7,20.9,126,21,125.3,21z"/>
		<path class="st0" d="M138,13.6h-2.3l-0.9,4.3c0,0.1-0.1,0.3-0.1,0.4c0,0.1,0,0.2,0,0.3c0,0.2,0.1,0.4,0.2,0.5
			c0.1,0.1,0.3,0.1,0.6,0.1c0.2,0,0.5,0,0.8-0.1c0.3,0,0.6-0.1,0.9-0.2l-0.4,1.8c-0.3,0.1-0.6,0.1-1,0.2c-0.3,0-0.7,0.1-1,0.1
			c-0.4,0-0.8,0-1.1-0.1c-0.3-0.1-0.6-0.2-0.8-0.4c-0.2-0.2-0.3-0.4-0.4-0.6c-0.1-0.2-0.1-0.5-0.1-0.8c0-0.1,0-0.2,0-0.4
			c0-0.1,0-0.3,0.1-0.5l0.9-4.6h-1.7l0.4-1.8h1.7l0.5-2.5h2.2l-0.5,2.5h2.3L138,13.6z"/>
		<path class="st0" d="M65,39.7c0-0.3-0.1-0.5-0.2-0.7c-0.2-0.2-0.3-0.3-0.6-0.4c-0.2-0.1-0.5-0.2-0.8-0.3c-0.3-0.1-0.6-0.2-1-0.3
			c-0.4-0.1-0.8-0.3-1.1-0.4c-0.3-0.2-0.6-0.4-0.9-0.6c-0.2-0.2-0.4-0.5-0.6-0.9c-0.1-0.3-0.2-0.7-0.2-1.2c0-0.6,0.1-1.1,0.3-1.6
			c0.2-0.5,0.5-0.9,0.9-1.2c0.4-0.3,0.9-0.6,1.4-0.8s1.2-0.3,1.9-0.3c0.7,0,1.5,0.1,2.2,0.2c0.7,0.2,1.3,0.4,1.9,0.6l-0.4,1.9
			c-0.7-0.3-1.3-0.5-1.9-0.6c-0.5-0.1-1.1-0.2-1.6-0.2c-0.7,0-1.3,0.2-1.7,0.5c-0.4,0.3-0.6,0.7-0.6,1.2c0,0.3,0.1,0.5,0.2,0.7
			c0.1,0.2,0.3,0.4,0.4,0.5c0.2,0.1,0.4,0.2,0.7,0.3c0.3,0.1,0.5,0.2,0.8,0.3c0.4,0.1,0.8,0.3,1.2,0.4c0.4,0.1,0.8,0.3,1.1,0.6
			c0.3,0.2,0.6,0.5,0.8,0.9c0.2,0.4,0.3,0.8,0.3,1.3c0,0.7-0.1,1.3-0.4,1.8c-0.3,0.5-0.6,1-1.1,1.4c-0.5,0.4-1,0.7-1.7,0.8
			c-0.7,0.2-1.4,0.3-2.3,0.3c-0.4,0-0.8,0-1.2-0.1c-0.4-0.1-0.8-0.1-1.1-0.2c-0.3-0.1-0.6-0.2-0.9-0.3c-0.3-0.1-0.5-0.2-0.6-0.3
			l0.4-1.9c0.5,0.2,1,0.4,1.6,0.6c0.6,0.2,1.2,0.2,1.9,0.2c0.5,0,0.9,0,1.3-0.1c0.4-0.1,0.7-0.2,1-0.4c0.3-0.2,0.5-0.4,0.6-0.7
			S65,40,65,39.7z M65.4,30.5h-1.9l-1.5-2.3h1.8l0.8,1.2h0l1.3-1.2h2L65.4,30.5z"/>
		<path class="st0" d="M75.2,36.4h-2.3L72,40.7c0,0.1-0.1,0.3-0.1,0.4c0,0.1,0,0.2,0,0.3c0,0.2,0.1,0.4,0.2,0.5
			c0.1,0.1,0.3,0.1,0.6,0.1c0.2,0,0.5,0,0.8-0.1c0.3,0,0.6-0.1,0.9-0.2l-0.4,1.8c-0.3,0.1-0.6,0.1-1,0.2c-0.3,0-0.7,0.1-1,0.1
			c-0.4,0-0.8,0-1.1-0.1c-0.3-0.1-0.6-0.2-0.8-0.4c-0.2-0.2-0.3-0.4-0.4-0.6c-0.1-0.2-0.1-0.5-0.1-0.8c0-0.1,0-0.2,0-0.4
			c0-0.1,0-0.3,0.1-0.5l0.9-4.6H69l0.4-1.8h1.7l0.5-2.5h2.2l-0.5,2.5h2.3L75.2,36.4z"/>
		<path class="st0" d="M84.2,36.8c0,0.5-0.1,1-0.4,1.3c-0.2,0.4-0.6,0.7-1.1,1c-0.5,0.3-1.1,0.5-1.8,0.6s-1.5,0.2-2.4,0.2
			c-0.1,0-0.2,0-0.4,0v0.1c0,0.3,0,0.6,0.1,0.9s0.2,0.4,0.4,0.6c0.2,0.2,0.4,0.3,0.7,0.3C79.7,42,80,42,80.3,42c0.5,0,1-0.1,1.5-0.2
			c0.5-0.1,1-0.3,1.4-0.5l-0.4,1.9c-0.4,0.2-0.8,0.3-1.3,0.4c-0.5,0.1-1,0.1-1.6,0.1c-0.7,0-1.2-0.1-1.7-0.3s-0.9-0.4-1.2-0.8
			c-0.3-0.3-0.6-0.7-0.7-1.2c-0.2-0.4-0.2-0.9-0.2-1.5c0-0.5,0-0.9,0.1-1.4c0.1-0.5,0.2-0.9,0.4-1.3c0.2-0.4,0.4-0.8,0.7-1.2
			c0.3-0.4,0.6-0.7,1-1c0.4-0.3,0.8-0.5,1.3-0.6c0.5-0.2,1-0.2,1.5-0.2c0.5,0,0.9,0.1,1.3,0.2c0.4,0.1,0.7,0.3,1,0.5
			c0.3,0.2,0.5,0.5,0.6,0.8C84.1,36.1,84.2,36.5,84.2,36.8z M82,36.8c0-0.2-0.1-0.4-0.2-0.5s-0.4-0.2-0.7-0.2c-0.2,0-0.5,0-0.8,0.1
			c-0.3,0.1-0.5,0.2-0.7,0.4c-0.2,0.2-0.4,0.4-0.6,0.7c-0.2,0.3-0.3,0.6-0.4,1c0.7,0,1.2,0,1.7-0.1s0.8-0.2,1.1-0.3
			c0.3-0.1,0.5-0.3,0.6-0.5C81.9,37.2,82,37,82,36.8z M82.3,33.1h-1.9l-1.3-3.2h1.6l0.8,2h0l1.6-2h1.8L82.3,33.1z"/>
		<path class="st0" d="M91.2,34.4c0.4,0,0.7,0.1,1.1,0.2c0.3,0.2,0.6,0.4,0.8,0.7c0.2,0.3,0.4,0.6,0.5,1c0.1,0.4,0.2,0.8,0.2,1.3
			c0,0.5,0,1-0.1,1.4s-0.2,1-0.4,1.4s-0.4,0.9-0.7,1.3c-0.3,0.4-0.6,0.8-0.9,1.1s-0.7,0.5-1.2,0.7c-0.4,0.2-0.9,0.3-1.4,0.3
			c-0.4,0-0.8-0.1-1.1-0.2s-0.6-0.3-0.8-0.5h0l-1,4.7H84l2.8-13.3h1.9v1.1h0c0.1-0.2,0.3-0.3,0.5-0.5c0.2-0.2,0.4-0.3,0.6-0.4
			s0.4-0.2,0.7-0.3C90.6,34.4,90.9,34.4,91.2,34.4z M87.5,41.5c0.2,0.1,0.4,0.3,0.6,0.4c0.2,0.1,0.5,0.1,0.8,0.1
			c0.3,0,0.5-0.1,0.8-0.2c0.2-0.1,0.5-0.3,0.7-0.5s0.4-0.5,0.5-0.8c0.2-0.3,0.3-0.6,0.4-0.9c0.1-0.3,0.2-0.7,0.3-1
			c0.1-0.3,0.1-0.7,0.1-1c0-0.4-0.1-0.8-0.3-1.1s-0.4-0.4-0.8-0.4c-0.3,0-0.6,0.1-1,0.3c-0.3,0.2-0.6,0.5-0.9,0.9
			c-0.2,0.2-0.3,0.5-0.4,0.8c-0.1,0.3-0.2,0.7-0.3,1.1L87.5,41.5z"/>
		<path class="st0" d="M102.4,41.4c0,0.2,0,0.3,0.1,0.4c0.1,0.1,0.2,0.1,0.4,0.1c0.2,0,0.4,0,0.7-0.1l-0.4,1.8
			c-0.4,0.1-0.8,0.1-1.1,0.1c-0.5,0-0.9-0.1-1.2-0.4c-0.3-0.2-0.4-0.6-0.5-1h0c-0.4,0.5-0.9,0.9-1.4,1.1c-0.5,0.2-1,0.3-1.4,0.3
			c-0.4,0-0.8-0.1-1.1-0.2c-0.3-0.1-0.6-0.4-0.8-0.6c-0.2-0.3-0.4-0.6-0.5-1C95,41.6,95,41.2,95,40.7c0-0.5,0-1,0.1-1.5
			c0.1-0.5,0.2-1,0.4-1.5c0.2-0.5,0.4-0.9,0.6-1.3s0.5-0.8,0.8-1.1c0.3-0.3,0.7-0.5,1.1-0.7c0.4-0.2,0.8-0.3,1.3-0.3
			c0.4,0,0.8,0.1,1.2,0.3c0.4,0.2,0.7,0.5,1,0.8h0l0.3-0.9h1.9l-1.3,6.3c0,0.1,0,0.2-0.1,0.3C102.4,41.3,102.4,41.4,102.4,41.4z
			 M101.1,36.9c-0.1-0.1-0.1-0.2-0.2-0.2c-0.1-0.1-0.2-0.2-0.3-0.2c-0.1-0.1-0.3-0.1-0.4-0.2s-0.3-0.1-0.5-0.1
			c-0.3,0-0.6,0.1-0.8,0.2c-0.2,0.1-0.5,0.3-0.6,0.6c-0.2,0.2-0.4,0.5-0.5,0.8c-0.1,0.3-0.2,0.6-0.3,0.9s-0.2,0.6-0.2,1
			s-0.1,0.6-0.1,0.9c0,0.5,0.1,0.9,0.2,1.2c0.2,0.2,0.4,0.4,0.7,0.4c0.3,0,0.6-0.1,0.9-0.3c0.3-0.2,0.6-0.5,0.8-0.9
			c0.2-0.2,0.3-0.5,0.4-0.8c0.1-0.3,0.2-0.7,0.3-1.1L101.1,36.9z M102.9,29.9l-2.2,3.2h-1.8l1.8-3.2H102.9z"/>
		<path class="st0" d="M107,43.6h-2.2l1.9-9h1.9v1.1h0c0.1-0.2,0.3-0.4,0.5-0.5c0.2-0.2,0.4-0.3,0.7-0.4c0.2-0.1,0.5-0.2,0.8-0.3
			c0.3-0.1,0.6-0.1,0.9-0.1c0.4,0,0.7,0.1,1,0.2c0.3,0.1,0.6,0.3,0.8,0.5c0.2,0.2,0.4,0.4,0.6,0.7c0.1,0.3,0.2,0.6,0.2,1
			c0,0.2,0,0.5-0.1,0.8s-0.1,0.6-0.1,0.8l-1.1,5.3h-2.2l1.1-5.5c0-0.2,0.1-0.4,0.1-0.5c0-0.2,0-0.3,0-0.4c0-0.3-0.1-0.6-0.3-0.7
			c-0.2-0.2-0.4-0.3-0.8-0.3c-0.5,0-0.9,0.1-1.3,0.4s-0.7,0.6-1,1c0,0.1-0.1,0.2-0.1,0.3c0,0.1-0.1,0.2-0.1,0.3
			c0,0.1-0.1,0.3-0.1,0.4c0,0.2-0.1,0.3-0.1,0.5L107,43.6z"/>
		<path class="st0" d="M125.4,31.2c0.6,0,1.2,0,1.7,0.1s0.9,0.2,1.3,0.3c0.5,0.2,0.9,0.4,1.2,0.7c0.3,0.3,0.6,0.6,0.8,1
			s0.4,0.8,0.5,1.2c0.1,0.4,0.2,0.9,0.2,1.4c0,0.3,0,0.7-0.1,1.1c-0.1,0.4-0.1,0.8-0.3,1.3c-0.1,0.4-0.3,0.9-0.5,1.4
			c-0.2,0.5-0.5,0.9-0.8,1.3c-0.3,0.4-0.7,0.8-1.2,1.2c-0.5,0.4-1,0.7-1.6,0.9c-0.5,0.2-1,0.3-1.6,0.5c-0.6,0.1-1.3,0.2-2.1,0.2
			h-3.5l2.6-12.4H125.4z M121.8,41.7h1.4c0.6,0,1.1-0.1,1.5-0.2c0.4-0.1,0.8-0.2,1.2-0.4c0.5-0.2,0.9-0.5,1.2-0.9
			c0.3-0.4,0.6-0.8,0.9-1.2c0.2-0.4,0.4-0.9,0.5-1.4c0.1-0.5,0.2-1,0.2-1.5c0-0.7-0.1-1.2-0.3-1.7c-0.2-0.4-0.6-0.8-1.1-1
			c-0.2-0.1-0.5-0.2-0.8-0.2c-0.3,0-0.7-0.1-1.2-0.1h-1.7L121.8,41.7z"/>
		<path class="st0" d="M135.7,43.8c-0.6,0-1.1-0.1-1.5-0.2c-0.4-0.1-0.8-0.3-1-0.6c-0.3-0.2-0.5-0.5-0.6-0.9
			c-0.1-0.3-0.2-0.7-0.2-1.1c0-0.1,0-0.3,0-0.4c0-0.2,0.1-0.4,0.1-0.6l1.1-5.4h2.2l-1.1,5.5c0,0.1-0.1,0.3-0.1,0.4
			c0,0.1,0,0.2,0,0.3c0,0.4,0.1,0.7,0.3,0.9c0.2,0.2,0.5,0.3,1,0.3c0.3,0,0.6,0,0.8-0.1c0.2-0.1,0.4-0.2,0.6-0.4s0.3-0.4,0.4-0.6
			c0.1-0.2,0.2-0.5,0.2-0.8l1.1-5.5h2.2l-1.3,6.1c-0.1,0.4-0.2,0.8-0.4,1.2c-0.2,0.4-0.4,0.7-0.8,1s-0.8,0.5-1.3,0.7
			C137,43.7,136.4,43.8,135.7,43.8z"/>
		<path class="st0" d="M145.8,34c-0.1,0.5-0.2,0.9-0.3,1.4h0c0.1-0.1,0.2-0.3,0.4-0.4c0.2-0.1,0.3-0.2,0.5-0.3
			c0.2-0.1,0.4-0.2,0.6-0.2c0.2-0.1,0.5-0.1,0.7-0.1c0.4,0,0.7,0.1,1.1,0.2c0.3,0.1,0.6,0.3,0.9,0.6c0.3,0.3,0.5,0.6,0.6,1
			c0.1,0.4,0.2,0.9,0.2,1.4c0,0.5,0,0.9-0.1,1.4c-0.1,0.5-0.2,1-0.4,1.4c-0.2,0.5-0.4,0.9-0.7,1.3c-0.3,0.4-0.6,0.8-1,1.1
			c-0.4,0.3-0.8,0.6-1.3,0.7s-1.1,0.3-1.7,0.3c-0.5,0-0.9-0.1-1.3-0.2c-0.4-0.1-0.7-0.3-1-0.6s-0.5-0.6-0.6-0.9
			c-0.1-0.3-0.2-0.7-0.2-1.1c0-0.2,0-0.3,0-0.5c0-0.2,0.1-0.4,0.1-0.7l2-9.6h2.2L145.8,34z M144.5,40.1c0,0.2-0.1,0.3-0.1,0.4
			c0,0.1,0,0.2,0,0.3c0,0.4,0.1,0.7,0.3,0.9c0.2,0.2,0.5,0.3,0.8,0.3c0.3,0,0.6-0.1,0.8-0.2s0.5-0.3,0.7-0.5
			c0.2-0.2,0.4-0.5,0.6-0.8c0.2-0.3,0.3-0.6,0.4-0.9c0.1-0.3,0.2-0.6,0.2-1c0.1-0.3,0.1-0.6,0.1-0.9c0-0.2,0-0.4-0.1-0.6
			c0-0.2-0.1-0.4-0.2-0.5c-0.1-0.1-0.2-0.3-0.4-0.3c-0.2-0.1-0.3-0.1-0.6-0.1c-0.2,0-0.4,0-0.7,0.1c-0.2,0.1-0.5,0.2-0.7,0.4
			c-0.2,0.2-0.4,0.4-0.6,0.7s-0.3,0.7-0.4,1.1L144.5,40.1z"/>
	</g>
</g>
</svg>
